<svg width="130" height="96" viewBox="0 0 130 96" fill="none" xmlns="http://www.w3.org/2000/svg">
<circle cx="30" cy="48" r="30" fill="#FF3D00"/>
<g clip-path="url(#clip0_95578_5746)">
<path d="M44.8709 59.1626C44.4699 59.1633 44.0792 59.0337 43.7563 58.7929L29.6511 48.263L15.5458 58.7929C15.3478 58.941 15.1229 59.0482 14.8839 59.1084C14.645 59.1685 14.3966 59.1805 14.1531 59.1435C13.9096 59.1066 13.6757 59.0214 13.4647 58.893C13.2536 58.7645 13.0697 58.5953 12.9233 58.3949C12.777 58.1945 12.6711 57.9669 12.6116 57.7251C12.5522 57.4832 12.5404 57.2319 12.5769 56.9855C12.6507 56.4878 12.9168 56.0402 13.3167 55.7411L28.5365 44.3677C28.8591 44.126 29.2498 43.9956 29.6511 43.9956C30.0524 43.9956 30.4431 44.126 30.7657 44.3677L45.9855 55.7411C46.3033 55.9781 46.5389 56.3106 46.6588 56.6912C46.7788 57.0718 46.7768 57.481 46.6532 57.8604C46.5296 58.2398 46.2907 58.57 45.9706 58.8039C45.6506 59.0377 45.2657 59.1633 44.8709 59.1626Z" fill="white"/>
<path d="M44.8708 49.2109C44.4697 49.2116 44.0791 49.082 43.7562 48.8413L29.651 38.3114L15.5457 48.8413C15.1458 49.1404 14.6448 49.2665 14.153 49.1919C13.6612 49.1172 13.2188 48.8479 12.9232 48.4432C12.6276 48.0385 12.503 47.5315 12.5768 47.0339C12.6506 46.5362 12.9167 46.0885 13.3166 45.7894L28.5364 34.416C28.859 34.1744 29.2497 34.0439 29.651 34.0439C30.0523 34.0439 30.443 34.1744 30.7655 34.416L45.9854 45.7894C46.3031 46.0264 46.5388 46.359 46.6587 46.7396C46.7786 47.1202 46.7767 47.5294 46.6531 47.9088C46.5295 48.2882 46.2906 48.6184 45.9705 48.8522C45.6505 49.0861 45.2656 49.2116 44.8708 49.2109Z" fill="white"/>
</g>
<path d="M111.693 15.4545V62H103.261V23.6591H102.989L92.1023 30.6136V22.8864L103.67 15.4545H111.693Z" fill="black"/>
<path d="M87.0455 80.3636H88.4545V88.0682C88.4545 88.8636 88.267 89.5739 87.892 90.1989C87.5208 90.8201 86.9962 91.3106 86.3182 91.6705C85.6402 92.0265 84.8447 92.2045 83.9318 92.2045C83.0189 92.2045 82.2235 92.0265 81.5455 91.6705C80.8674 91.3106 80.3409 90.8201 79.9659 90.1989C79.5947 89.5739 79.4091 88.8636 79.4091 88.0682V80.3636H80.8182V87.9545C80.8182 88.5227 80.9432 89.0284 81.1932 89.4716C81.4432 89.911 81.7992 90.2576 82.2614 90.5114C82.7273 90.7614 83.2841 90.8864 83.9318 90.8864C84.5795 90.8864 85.1364 90.7614 85.6023 90.5114C86.0682 90.2576 86.4242 89.911 86.6705 89.4716C86.9205 89.0284 87.0455 88.5227 87.0455 87.9545V80.3636ZM91.0866 92V83.2727H92.3821V84.5909H92.473C92.6321 84.1591 92.92 83.8087 93.3366 83.5398C93.7533 83.2708 94.223 83.1364 94.7457 83.1364C94.8442 83.1364 94.9673 83.1383 95.1151 83.142C95.2628 83.1458 95.3745 83.1515 95.4503 83.1591V84.5227C95.4048 84.5114 95.3007 84.4943 95.1378 84.4716C94.9787 84.4451 94.8101 84.4318 94.6321 84.4318C94.2079 84.4318 93.8291 84.5208 93.4957 84.6989C93.1662 84.8731 92.9048 85.1155 92.7116 85.4261C92.5223 85.733 92.4276 86.0833 92.4276 86.4773V92H91.0866ZM100.297 95.4545C99.6491 95.4545 99.0923 95.3712 98.6264 95.2045C98.1605 95.0417 97.7723 94.8258 97.4616 94.5568C97.1548 94.2917 96.9105 94.0076 96.7287 93.7045L97.7969 92.9545C97.9181 93.1136 98.0715 93.2955 98.2571 93.5C98.4427 93.7083 98.6965 93.8883 99.0185 94.0398C99.3442 94.1951 99.7704 94.2727 100.297 94.2727C101.001 94.2727 101.583 94.1023 102.041 93.7614C102.5 93.4205 102.729 92.8864 102.729 92.1591V90.3864H102.615C102.517 90.5455 102.376 90.7424 102.195 90.9773C102.017 91.2083 101.759 91.4148 101.422 91.5966C101.089 91.7746 100.638 91.8636 100.07 91.8636C99.3651 91.8636 98.7325 91.697 98.1719 91.3636C97.6151 91.0303 97.1738 90.5455 96.848 89.9091C96.526 89.2727 96.3651 88.5 96.3651 87.5909C96.3651 86.697 96.5223 85.9186 96.8366 85.2557C97.151 84.589 97.5885 84.0739 98.1491 83.7102C98.7098 83.3428 99.3575 83.1591 100.092 83.1591C100.661 83.1591 101.111 83.2538 101.445 83.4432C101.782 83.6288 102.039 83.8409 102.217 84.0795C102.399 84.3144 102.539 84.5076 102.638 84.6591H102.774V83.2727H104.07V92.25C104.07 93 103.899 93.6098 103.558 94.0795C103.221 94.553 102.767 94.8996 102.195 95.1193C101.626 95.3428 100.994 95.4545 100.297 95.4545ZM100.251 90.6591C100.789 90.6591 101.244 90.536 101.615 90.2898C101.986 90.0436 102.268 89.6894 102.462 89.2273C102.655 88.7652 102.751 88.2121 102.751 87.5682C102.751 86.9394 102.657 86.3845 102.467 85.9034C102.278 85.4223 101.998 85.0455 101.626 84.7727C101.255 84.5 100.797 84.3636 100.251 84.3636C99.6832 84.3636 99.2098 84.5076 98.831 84.7955C98.456 85.0833 98.1738 85.4697 97.9844 85.9545C97.7988 86.4394 97.706 86.9773 97.706 87.5682C97.706 88.1742 97.8007 88.7102 97.9901 89.1761C98.1832 89.6383 98.4673 90.0019 98.8423 90.267C99.2211 90.5284 99.6908 90.6591 100.251 90.6591ZM110.183 92.1818C109.342 92.1818 108.617 91.9962 108.007 91.625C107.401 91.25 106.933 90.7273 106.604 90.0568C106.278 89.3826 106.115 88.5985 106.115 87.7045C106.115 86.8106 106.278 86.0227 106.604 85.3409C106.933 84.6553 107.392 84.1212 107.979 83.7386C108.57 83.3523 109.259 83.1591 110.047 83.1591C110.501 83.1591 110.95 83.2348 111.393 83.3864C111.837 83.5379 112.24 83.7841 112.604 84.125C112.967 84.4621 113.257 84.9091 113.473 85.4659C113.689 86.0227 113.797 86.7083 113.797 87.5227V88.0909H107.07V86.9318H112.433C112.433 86.4394 112.335 86 112.138 85.6136C111.945 85.2273 111.668 84.9223 111.308 84.6989C110.952 84.4754 110.532 84.3636 110.047 84.3636C109.513 84.3636 109.051 84.4962 108.661 84.7614C108.274 85.0227 107.977 85.3636 107.768 85.7841C107.56 86.2045 107.456 86.6553 107.456 87.1364V87.9091C107.456 88.5682 107.57 89.1269 107.797 89.5852C108.028 90.0398 108.348 90.3864 108.757 90.625C109.166 90.8598 109.642 90.9773 110.183 90.9773C110.536 90.9773 110.854 90.928 111.138 90.8295C111.426 90.7273 111.674 90.5758 111.882 90.375C112.09 90.1705 112.251 89.9167 112.365 89.6136L113.661 89.9773C113.524 90.4167 113.295 90.803 112.973 91.1364C112.651 91.4659 112.253 91.7235 111.78 91.9091C111.306 92.0909 110.774 92.1818 110.183 92.1818ZM117.178 86.75V92H115.837V83.2727H117.132V84.6364H117.246C117.45 84.1932 117.761 83.8371 118.178 83.5682C118.594 83.2955 119.132 83.1591 119.791 83.1591C120.382 83.1591 120.899 83.2803 121.342 83.5227C121.786 83.7614 122.13 84.125 122.376 84.6136C122.623 85.0985 122.746 85.7121 122.746 86.4545V92H121.405V86.5455C121.405 85.8598 121.227 85.3258 120.871 84.9432C120.515 84.5568 120.026 84.3636 119.405 84.3636C118.977 84.3636 118.594 84.4564 118.257 84.642C117.924 84.8277 117.661 85.0985 117.467 85.4545C117.274 85.8106 117.178 86.2424 117.178 86.75ZM128.991 83.2727V84.4091H124.469V83.2727H128.991ZM125.787 81.1818H127.128V89.5C127.128 89.8788 127.183 90.1629 127.293 90.3523C127.406 90.5379 127.55 90.6629 127.724 90.7273C127.902 90.7879 128.09 90.8182 128.287 90.8182C128.435 90.8182 128.556 90.8106 128.651 90.7955C128.745 90.7765 128.821 90.7614 128.878 90.75L129.151 91.9545C129.06 91.9886 128.933 92.0227 128.77 92.0568C128.607 92.0947 128.401 92.1136 128.151 92.1136C127.772 92.1136 127.401 92.0322 127.037 91.8693C126.677 91.7064 126.378 91.4583 126.139 91.125C125.904 90.7917 125.787 90.3712 125.787 89.8636V81.1818Z" fill="#2A3647"/>
<defs>
<clipPath id="clip0_95578_5746">
<rect width="34.186" height="25.1163" fill="white" transform="translate(12.5581 34.0464)"/>
</clipPath>
</defs>
</svg>
